<svg xmlns="http://www.w3.org/2000/svg" width="16" height="16" viewBox="0 0 16 16" shape-rendering="crispEdges"><metadata><rdf:RDF xmlns:rdf="http://www.w3.org/1999/02/22-rdf-syntax-ns#" xmlns:dc="http://purl.org/dc/elements/1.1/"><rdf:Description><dc:creator>RealFaviconGenerator</dc:creator><dc:source>https://realfavicongenerator.net</dc:source></rdf:Description></rdf:RDF></metadata><rect x="12" y="0" width="3" height="1" fill="#1d2b53"></rect><rect x="11" y="1" width="1" height="1" fill="#1d2b53"></rect><rect x="12" y="1" width="3" height="1" fill="#ff004d"></rect><rect x="15" y="1" width="1" height="1" fill="#1d2b53"></rect><rect x="10" y="2" width="1" height="1" fill="#1d2b53"></rect><rect x="11" y="2" width="1" height="1" fill="#ffa300"></rect><rect x="12" y="2" width="2" height="1" fill="#ff004d"></rect><rect x="14" y="2" width="1" height="1" fill="#1d2b53"></rect><rect x="9" y="3" width="1" height="1" fill="#1d2b53"></rect><rect x="10" y="3" width="1" height="1" fill="#c2c3c7"></rect><rect x="11" y="3" width="1" height="1" fill="#ffa300"></rect><rect x="12" y="3" width="1" height="1" fill="#1d2b53"></rect><rect x="8" y="4" width="1" height="1" fill="#1d2b53"></rect><rect x="9" y="4" width="1" height="1" fill="#ab5236"></rect><rect x="10" y="4" width="1" height="1" fill="#1d2b53"></rect><rect x="7" y="5" width="1" height="1" fill="#1d2b53"></rect><rect x="8" y="5" width="1" height="1" fill="#ab5236"></rect><rect x="9" y="5" width="1" height="1" fill="#1d2b53"></rect><rect x="3" y="6" width="10" height="1" fill="#1d2b53"></rect><rect x="2" y="7" width="1" height="1" fill="#1d2b53"></rect><rect x="3" y="7" width="1" height="1" fill="#c2c3c7"></rect><rect x="4" y="7" width="3" height="1" fill="#fff1e8"></rect><rect x="7" y="7" width="5" height="1" fill="#c2c3c7"></rect><rect x="12" y="7" width="1" height="1" fill="#83769c"></rect><rect x="13" y="7" width="1" height="1" fill="#1d2b53"></rect><rect x="1" y="8" width="1" height="1" fill="#1d2b53"></rect><rect x="2" y="8" width="1" height="1" fill="#c2c3c7"></rect><rect x="3" y="8" width="3" height="1" fill="#fff1e8"></rect><rect x="6" y="8" width="7" height="1" fill="#c2c3c7"></rect><rect x="13" y="8" width="1" height="1" fill="#83769c"></rect><rect x="14" y="8" width="1" height="1" fill="#1d2b53"></rect><rect x="0" y="9" width="1" height="1" fill="#1d2b53"></rect><rect x="1" y="9" width="11" height="1" fill="#c2c3c7"></rect><rect x="12" y="9" width="3" height="1" fill="#83769c"></rect><rect x="15" y="9" width="1" height="1" fill="#1d2b53"></rect><rect x="0" y="10" width="1" height="1" fill="#1d2b53"></rect><rect x="1" y="10" width="4" height="1" fill="#c2c3c7"></rect><rect x="5" y="10" width="1" height="1" fill="#1d2b53"></rect><rect x="6" y="10" width="4" height="1" fill="#c2c3c7"></rect><rect x="10" y="10" width="1" height="1" fill="#1d2b53"></rect><rect x="11" y="10" width="4" height="1" fill="#83769c"></rect><rect x="15" y="10" width="1" height="1" fill="#1d2b53"></rect><rect x="0" y="11" width="1" height="1" fill="#1d2b53"></rect><rect x="1" y="11" width="4" height="1" fill="#c2c3c7"></rect><rect x="5" y="11" width="1" height="1" fill="#1d2b53"></rect><rect x="6" y="11" width="4" height="1" fill="#c2c3c7"></rect><rect x="10" y="11" width="1" height="1" fill="#1d2b53"></rect><rect x="11" y="11" width="4" height="1" fill="#83769c"></rect><rect x="15" y="11" width="1" height="1" fill="#1d2b53"></rect><rect x="0" y="12" width="1" height="1" fill="#1d2b53"></rect><rect x="1" y="12" width="3" height="1" fill="#c2c3c7"></rect><rect x="4" y="12" width="1" height="1" fill="#ff77a8"></rect><rect x="5" y="12" width="2" height="1" fill="#c2c3c7"></rect><rect x="7" y="12" width="4" height="1" fill="#83769c"></rect><rect x="11" y="12" width="1" height="1" fill="#ff77a8"></rect><rect x="12" y="12" width="3" height="1" fill="#83769c"></rect><rect x="15" y="12" width="1" height="1" fill="#1d2b53"></rect><rect x="1" y="13" width="1" height="1" fill="#1d2b53"></rect><rect x="2" y="13" width="5" height="1" fill="#83769c"></rect><rect x="7" y="13" width="2" height="1" fill="#1d2b53"></rect><rect x="9" y="13" width="5" height="1" fill="#83769c"></rect><rect x="14" y="13" width="1" height="1" fill="#1d2b53"></rect><rect x="2" y="14" width="1" height="1" fill="#1d2b53"></rect><rect x="3" y="14" width="10" height="1" fill="#83769c"></rect><rect x="13" y="14" width="1" height="1" fill="#1d2b53"></rect><rect x="3" y="15" width="10" height="1" fill="#1d2b53"></rect></svg>